<svg id="Слой_1" data-name="Слой 1" xmlns="http://www.w3.org/2000/svg" viewBox="0 0 144 144"><defs><style>.cls-1,.cls-2{fill:none;stroke:#FFFFFF;stroke-linecap:round;stroke-linejoin:round;}.cls-1{stroke-width:5px;}.cls-2{stroke-width:3px;}</style></defs><path class="cls-1" d="M72,25.27A69.5,69.5,0,0,0,2.5,94.77v24h139v-24A69.5,69.5,0,0,0,72,25.27Z"/><line class="cls-2" x1="6.69" y1="71" x2="18.71" y2="75.38"/><line class="cls-2" x1="2.55" y1="94.79" x2="15.34" y2="94.79"/><line class="cls-2" x1="128.71" y1="94.79" x2="141.5" y2="94.79"/><line class="cls-2" x1="18.76" y1="50.1" x2="28.56" y2="58.32"/><line class="cls-2" x1="37.25" y1="34.59" x2="43.65" y2="45.67"/><line class="cls-2" x1="59.93" y1="26.33" x2="62.15" y2="38.93"/><line class="cls-2" x1="84.07" y1="26.33" x2="81.85" y2="38.93"/><line class="cls-2" x1="106.75" y1="34.59" x2="100.35" y2="45.67"/><line class="cls-2" x1="125.24" y1="50.1" x2="115.44" y2="58.32"/><line class="cls-2" x1="137.31" y1="71" x2="125.29" y2="75.38"/><path class="cls-1" d="M72,53.49A41.28,41.28,0,0,0,30.72,94.77H64a8,8,0,0,1,16,0h33.3A41.28,41.28,0,0,0,72,53.49Z"/></svg>