<svg id="Слой_1" xmlns="http://www.w3.org/2000/svg" viewBox="0 0 144 144"><style>.st0{fill:none;stroke:#FFFFFF;stroke-width:5;stroke-linecap:round;stroke-linejoin:round;}</style><path class="st0" d="M107,94.75"/><path class="st0" d="M113.49,94.04"/><path class="st0" d="M25.81,92.14C15.46,87.49,8.25,77.09,8.25,65c0-13.24,8.65-24.46,20.61-28.31c-0.24-1.36-0.36-2.76-0.36-4.19c0-13.81,11.19-25,25-25c9.81,0,18.3,5.65,22.39,13.88C79,19.55,82.63,18.5,86.5,18.5c10.14,0,18.6,7.19,20.57,16.75c16.4,0.04,29.68,13.34,29.68,29.75c0,13.41-8.87,24.74-21.06,28.46"/><path class="st0" d="M25.81,92.14"/><polygon class="st0" points="115.69,72.5 101,72.5 101,133.5 83,133.5 83,72.5 68.31,72.5 92,47.5 "/><polygon class="st0" points="73.19,108.5 58.5,108.5 58.5,47.5 40.5,47.5 40.5,108.5 25.81,108.5 49.5,133.5 "/></svg>