<svg id="Слой_1" data-name="Слой 1" xmlns="http://www.w3.org/2000/svg" viewBox="0 0 144 144">
	<defs>
		<style>.cls-1{fill:none;stroke:#FFFFFF;stroke-linecap:round;stroke-linejoin:round;stroke-width:5px;}</style>
		<style>.cls-2{fill:none;stroke:#FFFFFF;stroke-linecap:round;stroke-linejoin:round;stroke-width:3px;}</style>
	</defs>
	<path class="cls-1" d="M142.5,65.92V72a6.59,6.59,0,0,0-.26,1c-1.6,14.64-13.91,27-28.58,28.72a1.47,1.47,0,0,0-1.51,1.23,38.47,38.47,0,0,1-6.1,12.86c-11.16,15.32-26.3,23.65-45.1,25.56A14.53,14.53,0,0,1,49.55,138a80.72,80.72,0,0,1-9.7-9.32C24.31,109.92,13.41,88.59,5.57,65.6A71.12,71.12,0,0,1,3.93,23.49C5.49,17.58,7.77,12,12,7.44c3.54-3.81,7.8-5.66,13.1-4.66a79.39,79.39,0,0,1,19.7,6.8,10.91,10.91,0,0,1,6.23,9.17,49,49,0,0,1,.09,8.65c-.44,5.17-3.25,8.74-8.08,10.67l-6.52,2.59-9.88,4c.14.63.23,1.16.38,1.68a40.76,40.76,0,0,0,5.45,11.07C39.22,67.52,47.58,76.29,56.22,84.8a1.54,1.54,0,0,0,.48.26c.16-.45.28-.84.43-1.22,3-7.77,8.17-13.49,15.83-16.67,2.37-1,3.37-2.06,3.86-4.66A33.12,33.12,0,0,1,141.28,60C141.82,62,142.1,64,142.5,65.92Z"/>
	<path class="cls-2" d="M17.1,43.1s2.26,4.43,9.56,1.51"/>
	<path class="cls-2" d="M55.88,128.12a57.82,57.82,0,0,0,45.66-21.8"/>
</svg>