<svg version="1.0" id="Слой_1" xmlns="http://www.w3.org/2000/svg" viewBox="0 0 144 144"><style>.st0{fill:none;stroke:#FFFFFF;stroke-width:5;stroke-linecap:round;stroke-linejoin:round;}.st1{fill:none;stroke:#FFFFFF;stroke-width:3;stroke-linecap:round;stroke-linejoin:round;}</style><path class="st0" d="M112,49c0,5.36-1.28,10.05-1.28,10.05C105.5,72.5,102.5,70.5,96.5,84.5c-0.88,2.06-1.5,8.76-1.5,11H49c0-2.24-0.62-8.94-1.5-11c-6-14-9-12-14.22-25.45c0,0-1.28-4.69-1.28-10.05C32,26.91,49.91,9,72,9S112,26.91,112,49z"/><rect class="st0" x="55" y="104.5" width="34" height="9.5"/><rect class="st0" x="56.5" y="122.38" width="31" height="9.5"/><path class="st1" d="M66.9,20.5c-12.57,0.82-20.2,10.29-23.67,20"/></svg>