<svg id="Слой_1" xmlns="http://www.w3.org/2000/svg" viewBox="0 0 144 144"><style>.st0{fill:none;stroke:#FFFFFF;stroke-width:5;stroke-linecap:round;stroke-linejoin:round;stroke-miterlimit:10;}.st1{fill:none;stroke:#FFFFFF;stroke-width:4;stroke-linecap:square;stroke-linejoin:round;stroke-miterlimit:10;}.st2{fill:none;stroke:#FFFFFF;stroke-width:5;stroke-linecap:square;stroke-miterlimit:10;}</style><ellipse class="st0" cx="44" cy="16" rx="36" ry="10"/><path class="st0" d="M8.05,32.25c0.94,5.29,16.68,9.5,35.95,9.5s35.02-4.21,35.95-9.5"/><path class="st0" d="M8.05,47.25c0.94,5.29,16.68,9.5,35.95,9.5c3.98,0,7.8-0.18,11.38-0.51"/><path class="st0" d="M44.48,77.25"/><path class="st0" d="M8.05,77.25c0.94,5.29,16.68,9.5,35.95,9.5c3.84,0,7.54-0.17,11.01-0.48"/><path class="st0" d="M8.05,62.25c0.94,5.29,16.68,9.5,35.95,9.5c3.41,0,6.71-0.13,9.84-0.38"/><path class="st0" d="M61.98,67.01"/><path class="st0" d="M8,16l0.05,76.25c0.94,5.29,16.68,9.5,35.95,9.5c3.85,0,7.55-0.17,11.03-0.48"/><line class="st0" x1="79.98" y1="47.5" x2="80" y2="16"/><ellipse class="st0" cx="95.9" cy="58.36" rx="40.9" ry="11.36"/><path class="st0" d="M120.5,85.5c7.98-1.96,15.7-5.52,16.26-8.67"/><path class="st0" d="M55.05,76.83c0.71,4.01,11.58,8.81,23.45,10.67"/><path class="st0" d="M118.63,102.75c10.43-1.94,17.47-5.18,18.12-8.88"/><path class="st0" d="M55.05,93.87c0.59,3.32,9.76,6.66,18.45,8.63"/><path class="st0" d="M103.5,121.5c15.62-1.45,32.41-5.86,33.26-10.63"/><path class="st0" d="M55.05,110.87c0.69,3.88,10.2,7.73,21.45,9.63"/><path class="st0" d="M55,58.5l0.05,69.41c1.07,6.01,18.95,10.79,40.85,10.79s39.79-4.78,40.85-10.79l0.05-69.41"/><line class="st1" x1="84.5" y1="112.18" x2="100.77" y2="112.18"/><path class="st2" d="M85.29,103.05h11.11h4.76c5.26,0,9.53-4.26,9.53-9.53S106.43,84,101.17,84h-4.76h-6.35v38.5"/></svg>