<svg id="Слой_1" data-name="Слой 1" xmlns="http://www.w3.org/2000/svg" viewBox="0 0 144 144">
	<defs>
		<style>.cls-1{fill:none;stroke:#FFFFFF;stroke-linecap:round;stroke-linejoin:round;stroke-width:5px;}</style>
		<style>.cls-2{fill:none;stroke:#FFFFFF;stroke-linecap:round;stroke-linejoin:round;stroke-width:3px;}</style>
	</defs>
	<path class="cls-1" d="M102.37,100.83v22.92H41.63V100.83h1.81a53.78,53.78,0,0,0,57.12,0Z"/>
	<rect class="cls-1" x="56.4" y="123.75" width="31.19" height="18.75"/>
	<path class="cls-1" d="M113.19,20.71a53.77,53.77,0,1,0,12.58,34.56A53.84,53.84,0,0,0,113.19,20.71ZM72,66A10.69,10.69,0,1,1,82.68,55.27,10.68,10.68,0,0,1,72,66Z"/>
	<line class="cls-2" x1="125.77" y1="55.27" x2="117.78" y2="55.27"/>
	<line class="cls-2" x1="122.53" y1="36.88" x2="115.02" y2="39.61"/>
	<line class="cls-2" x1="113.19" y1="20.71" x2="107.07" y2="25.84"/>
	<line class="cls-2" x1="98.89" y1="8.7" x2="94.89" y2="15.62"/>
	<line class="cls-2" x1="81.34" y1="2.32" x2="79.95" y2="10.18"/>
	<line class="cls-2" x1="62.66" y1="2.32" x2="64.05" y2="10.18"/>
	<line class="cls-2" x1="45.11" y1="8.7" x2="49.11" y2="15.62"/>
	<line class="cls-2" x1="30.81" y1="20.71" x2="36.93" y2="25.84"/>
	<line class="cls-2" x1="21.47" y1="36.88" x2="28.98" y2="39.61"/>
	<line class="cls-2" x1="18.23" y1="55.27" x2="26.22" y2="55.27"/>
	<path class="cls-2" d="M82.68,55.27a10.66,10.66,0,1,1-.55-3.4A10.68,10.68,0,0,1,82.68,55.27Z"/>
	<path class="cls-2" d="M100,27.23,82.13,51.87a10.72,10.72,0,0,0-6.73-6.73Z"/>
</svg>