<svg id="Слой_1" data-name="Слой 1" xmlns="http://www.w3.org/2000/svg" viewBox="0 0 144 144">
	<defs>
		<style>.cls-1,.cls-2{fill:none;stroke:#FFFFFF;stroke-linecap:round;stroke-linejoin:round;}.cls-1{stroke-width:5px;}.cls-2{stroke-width:3px;}</style>
	</defs>
	<path class="cls-1" d="M17.62,123.61a69.51,69.51,0,1,1,108.75,0"/>
	<rect class="cls-1" x="44.49" y="115.5" width="55.03" height="17.67"/>
	<line class="cls-2" x1="2.5" y1="80.33" x2="12.24" y2="80.33"/>
	<line class="cls-2" x1="11.81" y1="115.08" x2="20.24" y2="110.21"/>
	<line class="cls-2" x1="132.19" y1="115.08" x2="123.76" y2="110.21"/>
	<line class="cls-2" x1="141.5" y1="80.33" x2="131.77" y2="80.33"/>
	<line class="cls-2" x1="132.19" y1="45.58" x2="123.76" y2="50.45"/>
	<line class="cls-2" x1="106.75" y1="20.14" x2="101.88" y2="28.57"/>
	<line class="cls-2" x1="72" y1="10.83" x2="72" y2="20.56"/>
	<line class="cls-2" x1="37.25" y1="20.14" x2="42.12" y2="28.57"/>
	<line class="cls-2" x1="11.81" y1="45.58" x2="20.24" y2="50.45"/>
	<path class="cls-1" d="M81.75,80.33A9.75,9.75,0,1,1,72,70.58a9.52,9.52,0,0,1,2,.21,9.73,9.73,0,0,1,7.53,7.52A9.61,9.61,0,0,1,81.75,80.33Z"/>
	<path class="cls-1" d="M104,48.36v0L81.54,78.31A9.73,9.73,0,0,0,74,70.79L104,48.37Z"/>
</svg>