<svg id="Слой_1" xmlns="http://www.w3.org/2000/svg" viewBox="0 0 144 144"><style>.st0{fill:none;stroke:#FFFFFF;stroke-width:5;stroke-linecap:round;stroke-linejoin:round;stroke-miterlimit:10;}</style><path class="st0" d="M42.94,105.84c-18.32-3.21-32.4-9.49-33.86-18.09"/><path class="st0" d="M135.5,93.5L135,29.87C133.35,16.83,102.83,9,72,9S10.65,16.83,9,29.87v84.26c1.13,8.93,15.79,15.41,34.82,18.61"/><path class="st0" d="M134.93,58.75c-1.31,7.71-12.76,13.55-28.31,16.99"/><path class="st0" d="M66.15,79.15c-28.44-0.91-55.04-8.4-57.08-20.4"/><path class="st0" d="M134.93,30.5C132.75,43.32,102.53,51,72,51S11.25,43.32,9.07,30.5"/><path class="st0" d="M133.6,117.86c0,8.71-7.07,15.78-15.78,15.78c-8.13,0-41.67,0-48.93,0c-8.71,0-15.78-7.07-15.78-15.78c0-8.71,7.07-15.78,15.78-15.78c0.02,0,0.02,0,0.03,0c0.39-10.53,9.08-18.94,19.7-18.94c7.25,0,13.57,3.9,17,9.72c0.88-0.16,1.8-0.25,2.73-0.25c6.39,0,11.79,4.21,13.57,10.02C128.65,104.43,133.6,110.57,133.6,117.86z"/></svg>