<svg id="Слой_1" data-name="Слой 1" xmlns="http://www.w3.org/2000/svg" viewBox="0 0 144 144"><defs><style>.cls-1,.cls-2{fill:none;stroke:#FFFFFF;stroke-linecap:round;stroke-linejoin:round;}.cls-1{stroke-width:5px;}.cls-2{stroke-width:3px;}</style></defs><rect class="cls-1" x="24.25" y="2.5" width="95.51" height="16.92"/><path class="cls-1" d="M37,19.42h70a0,0,0,0,1,0,0V37A35,35,0,0,1,72,72h0A35,35,0,0,1,37,37V19.42A0,0,0,0,1,37,19.42Z"/><rect class="cls-1" x="24.25" y="124.58" width="95.51" height="16.92" transform="translate(144 266.08) rotate(180)"/><path class="cls-1" d="M37,72h70a0,0,0,0,1,0,0V89.59a35,35,0,0,1-35,35h0a35,35,0,0,1-35-35V72a0,0,0,0,1,0,0Z" transform="translate(144 196.58) rotate(180)"/><path class="cls-2" d="M37,113.31s15.58-7.71,28.45-4.48S107,107,107,107"/><circle class="cls-2" cx="68.74" cy="83.98" r="3.26"/><circle class="cls-2" cx="74.83" cy="97.11" r="3.26"/><path class="cls-2" d="M38.11,45.71s31.65-18.17,66.53,3.9"/></svg>