<svg id="Слой_1" data-name="Слой 1" xmlns="http://www.w3.org/2000/svg" viewBox="0 0 144 144"><defs><style>.cls-1{fill:none;stroke:#FFFFFF;stroke-linecap:round;stroke-linejoin:round;stroke-width:5px;}</style></defs><rect class="cls-1" x="35.01" y="126.44" width="73.98" height="15.06"/><path class="cls-1" d="M98.42,126.44H45.58a19.21,19.21,0,0,1,16.7-19.08,17.9,17.9,0,0,1,2.55-.18H79.17a17.9,17.9,0,0,1,2.55.18A19.24,19.24,0,0,1,98.42,126.44Z"/><path class="cls-1" d="M81.71,24.65v82.71a17.66,17.66,0,0,0-2.54-.18H64.83a17.66,17.66,0,0,0-2.54.18V24.65a13.18,13.18,0,0,0,19.42,0Z"/><polyline class="cls-1" points="84.56 11.6 114.94 10.33 141.5 9.22"/><polyline class="cls-1" points="2.5 15.01 29.06 13.91 59.15 12.65"/><path class="cls-1" d="M2.5,71.89H55.63a0,0,0,0,1,0,0v0A14.52,14.52,0,0,1,41.11,86.4H17A14.52,14.52,0,0,1,2.5,71.89v0A0,0,0,0,1,2.5,71.89Z"/><path class="cls-1" d="M2.5,71.89C4,70.13,29.06,35.78,29.06,35.78L55.63,71.89"/><line class="cls-1" x1="29.06" y1="35.78" x2="29.06" y2="13.91"/><path class="cls-1" d="M102.89,66.1H127A14.52,14.52,0,0,1,141.5,80.61v0a0,0,0,0,1,0,0H88.37a0,0,0,0,1,0,0v0A14.52,14.52,0,0,1,102.89,66.1Z" transform="translate(229.87 146.71) rotate(-180)"/><path class="cls-1" d="M141.5,66.1C140,64.34,114.94,30,114.94,30L88.37,66.1"/><line class="cls-1" x1="114.94" y1="29.99" x2="114.94" y2="10.33"/><path class="cls-1" d="M84.56,11.6a13.29,13.29,0,1,0,.64,4.1A13.63,13.63,0,0,0,84.56,11.6Z"/></svg>